<svg xmlns="http://www.w3.org/2000/svg" xmlns:xlink="http://www.w3.org/1999/xlink" viewBox="0 0 29.96 48.74"><defs><style>.cls-1,.cls-2,.cls-3{stroke:#1d1d1b;stroke-miterlimit:10;stroke-width:0.25px;}.cls-1{fill:url(#Dégradé_sans_nom_34);}.cls-2{fill:url(#Dégradé_sans_nom_34-2);}.cls-3{fill:url(#Dégradé_sans_nom_34-3);}.cls-4{font-size:18.18px;fill:#063;font-family:NiagaraSolid-Reg, Niagara Solid;}.cls-5{fill:#ffed00;letter-spacing:0em;}.cls-6{fill:#2d2e83;}.cls-7{fill:#1d1d1b;}</style><linearGradient id="Dégradé_sans_nom_34" x1="0.13" y1="17.6" x2="8.4" y2="17.6" gradientUnits="userSpaceOnUse"><stop offset="0" stop-color="#86b3e1"/><stop offset="0.11" stop-color="#88b4e1"/><stop offset="0.14" stop-color="#8fb8e3"/><stop offset="0.17" stop-color="#9ac0e6"/><stop offset="0.19" stop-color="#abcaea"/><stop offset="0.21" stop-color="#c1d8f0"/><stop offset="0.23" stop-color="#dce9f6"/><stop offset="0.24" stop-color="#fbfdfe"/><stop offset="0.24" stop-color="#fff"/><stop offset="0.26" stop-color="#e2edf7"/><stop offset="0.28" stop-color="#c1d8ef"/><stop offset="0.31" stop-color="#a6c6e8"/><stop offset="0.33" stop-color="#91b9e2"/><stop offset="0.36" stop-color="#82afde"/><stop offset="0.4" stop-color="#79aadc"/><stop offset="0.45" stop-color="#76a8db"/><stop offset="0.47" stop-color="#7dacdd"/><stop offset="0.51" stop-color="#91b9e2"/><stop offset="0.55" stop-color="#b1cdea"/><stop offset="0.6" stop-color="#dde9f6"/><stop offset="0.63" stop-color="#fff"/><stop offset="0.63" stop-color="#f1f3f8"/><stop offset="0.65" stop-color="#c8d0e5"/><stop offset="0.67" stop-color="#a2b0d3"/><stop offset="0.69" stop-color="#8295c4"/><stop offset="0.71" stop-color="#667db7"/><stop offset="0.74" stop-color="#506bad"/><stop offset="0.77" stop-color="#3f5ca5"/><stop offset="0.8" stop-color="#34529f"/><stop offset="0.86" stop-color="#2d4d9c"/><stop offset="1" stop-color="#2b4b9b"/></linearGradient><linearGradient id="Dégradé_sans_nom_34-2" x1="9.78" y1="17.68" x2="18.42" y2="17.68" xlink:href="#Dégradé_sans_nom_34"/><linearGradient id="Dégradé_sans_nom_34-3" x1="19.39" y1="17.68" x2="29.83" y2="17.68" xlink:href="#Dégradé_sans_nom_34"/></defs><title>Fichier 1</title><g id="Calque_2" data-name="Calque 2"><g id="Calque_1-2" data-name="Calque 1"><path class="cls-1" d="M8.4,30.29H.13V23.38a5.9,5.9,0,0,1,.94-3.25l3.59-5.61a5.57,5.57,0,0,0,.88-3.13V7c0-1-.42-1.44-1.27-1.44S3,6,3,7v5.64H.13V8.58A3.34,3.34,0,0,1,1.32,6,4.24,4.24,0,0,1,4.27,4.91,4.2,4.2,0,0,1,7.22,6,3.36,3.36,0,0,1,8.4,8.58v3.6a5.91,5.91,0,0,1-.93,3.24L3.87,21A5.61,5.61,0,0,0,3,24.17v5.47H5.54V22.73H8.4Z"/><path class="cls-2" d="M18.42,30.29H13.75v-.65h.89V24.49H9.78v-.76L14.64,5.08h2.89V23.73h.89v.76h-.89v5.15h.89Zm-3.78-6.56V8.1l-4,15.63Z"/><path class="cls-3" d="M29.83,30.29H25.14v-.65h.91V17.3H23.17V29.64h.9v.65H19.39v-.65h.9V5.73h-.9V5.08h4.68v.65h-.9V16.65h2.88V5.73h-.91V5.08h4.69v.65h-.91V29.64h.91Z"/><text class="cls-4" transform="translate(0.13 43.5) scale(1.11 1)">GA<tspan class="cls-5" x="10.45" y="0">B</tspan><tspan class="cls-6" x="16" y="0">ON</tspan></text><rect class="cls-7" x="0.13" y="44.84" width="29.71" height="3.9"/><rect class="cls-7" x="0.13" width="29.71" height="3.9"/></g></g></svg>